HIERARCHY
ROOT hip
{
  OFFSET 0 0 0
  CHANNELS 6 Xposition Yposition Zposition Zrotation Yrotation Xrotation
  JOINT abdomen
  {
    OFFSET 0 20.6881 -0.73152
    CHANNELS 3 Zrotation Xrotation Yrotation
    JOINT chest
    {
      OFFSET 0 11.7043 -0.48768
      CHANNELS 3 Zrotation Xrotation Yrotation
      JOINT neck
      {
        OFFSET 0 22.1894 -2.19456
        CHANNELS 3 Zrotation Xrotation Yrotation
        JOINT head
        {
          OFFSET -0.24384 7.07133 1.2192
          CHANNELS 3 Zrotation Xrotation Yrotation
          JOINT leftEye
          {
            OFFSET 4.14528 8.04674 8.04672
            CHANNELS 3 Zrotation Xrotation Yrotation
            End Site
            {
              OFFSET 1 0 0
            }
          }
          JOINT rightEye
          {
            OFFSET -3.6576 8.04674 8.04672
            CHANNELS 3 Zrotation Xrotation Yrotation
            End Site
            {
              OFFSET 1 0 0
            }
          }
        }
      }
      JOINT rCollar
      {
        OFFSET -2.68224 19.2634 -4.8768
        CHANNELS 3 Zrotation Xrotation Yrotation
        JOINT rShldr
        {
          OFFSET -8.77824 -1.95073 1.46304
          CHANNELS 3 Zrotation Xrotation Yrotation
          JOINT rForeArm
          {
            OFFSET -28.1742 -1.7115 0.48768
            CHANNELS 3 Zrotation Xrotation Yrotation
            JOINT rHand
            {
              OFFSET -22.5879 0.773209 7.07136
              CHANNELS 3 Zrotation Xrotation Yrotation
              JOINT rThumb1
              {
                OFFSET -1.2192 -0.487915 3.41376
                CHANNELS 3 Zrotation Xrotation Yrotation
                JOINT rThumb2
                {
                  OFFSET -3.37035 -0.52449 3.41376
                  CHANNELS 3 Zrotation Xrotation Yrotation
                  End Site
                  {
                    OFFSET -1.78271 -1.18214 1.43049
                  }
                }
              }
              JOINT rIndex1
              {
                OFFSET -7.75947 0.938293 5.60832
                CHANNELS 3 Zrotation Xrotation Yrotation
                JOINT rIndex2
                {
                  OFFSET -2.54057 -0.884171 1.56538
                  CHANNELS 3 Zrotation Xrotation Yrotation
                  End Site
                  {
                    OFFSET -1.62519 -0.234802 1.16502
                  }
                }
              }
              JOINT rMid1
              {
                OFFSET -8.24714 1.18213 3.41376
                CHANNELS 3 Zrotation Xrotation Yrotation
                JOINT rMid2
                {
                  OFFSET -3.10165 -0.590103 1.0647
                  CHANNELS 3 Zrotation Xrotation Yrotation
                  End Site
                  {
                    OFFSET -2.48547 -0.328903 0.83742
                  }
                }
              }
              JOINT rRing1
              {
                OFFSET -8.82822 0.546677 1.51678
                CHANNELS 3 Zrotation Xrotation Yrotation
                JOINT rRing2
                {
                  OFFSET -2.60934 -0.819778 -0.0198488
                  CHANNELS 3 Zrotation Xrotation Yrotation
                  End Site
                  {
                    OFFSET -2.33842 -0.294052 0.168128
                  }
                }
              }
              JOINT rPinky1
              {
                OFFSET -8.27202 -0.0477905 -0.4584
                CHANNELS 3 Zrotation Xrotation Yrotation
                JOINT rPinky2
                {
                  OFFSET -1.82734 -0.647385 -0.700984
                  CHANNELS 3 Zrotation Xrotation Yrotation
                  End Site
                  {
                    OFFSET -1.69225 -0.51767 -0.607171
                  }
                }
              }
            }
          }
        }
      }
      JOINT lCollar
      {
        OFFSET 2.68224 19.2634 -4.8768
        CHANNELS 3 Zrotation Xrotation Yrotation
        JOINT lShldr
        {
          OFFSET 8.77824 -1.95073 1.46304
          CHANNELS 3 Zrotation Xrotation Yrotation
          JOINT lForeArm
          {
            OFFSET 28.1742 -1.7115 0.48768
            CHANNELS 3 Zrotation Xrotation Yrotation
            JOINT lHand
            {
              OFFSET 22.5879 0.773209 7.07136
              CHANNELS 3 Zrotation Xrotation Yrotation
              JOINT lThumb1
              {
                OFFSET 1.2192 -0.487915 3.41376
                CHANNELS 3 Zrotation Xrotation Yrotation
                JOINT lThumb2
                {
                  OFFSET 3.37035 -0.52449 3.41376
                  CHANNELS 3 Zrotation Xrotation Yrotation
                  End Site
                  {
                    OFFSET 1.78271 -1.18214 1.43049
                  }
                }
              }
              JOINT lIndex1
              {
                OFFSET 7.75947 0.938293 5.60832
                CHANNELS 3 Zrotation Xrotation Yrotation
                JOINT lIndex2
                {
                  OFFSET 2.54057 -0.884171 1.56538
                  CHANNELS 3 Zrotation Xrotation Yrotation
                  End Site
                  {
                    OFFSET 1.62519 -0.234802 1.16502
                  }
                }
              }
              JOINT lMid1
              {
                OFFSET 8.24714 1.18213 3.41376
                CHANNELS 3 Zrotation Xrotation Yrotation
                JOINT lMid2
                {
                  OFFSET 3.10165 -0.590103 1.0647
                  CHANNELS 3 Zrotation Xrotation Yrotation
                  End Site
                  {
                    OFFSET 2.48547 -0.328903 0.83742
                  }
                }
              }
              JOINT lRing1
              {
                OFFSET 8.82822 0.546677 1.51678
                CHANNELS 3 Zrotation Xrotation Yrotation
                JOINT lRing2
                {
                  OFFSET 2.60934 -0.819778 -0.0198488
                  CHANNELS 3 Zrotation Xrotation Yrotation
                  End Site
                  {
                    OFFSET 2.33842 -0.294052 0.168128
                  }
                }
              }
              JOINT lPinky1
              {
                OFFSET 8.27202 -0.0477905 -0.4584
                CHANNELS 3 Zrotation Xrotation Yrotation
                JOINT lPinky2
                {
                  OFFSET 1.82734 -0.647385 -0.700984
                  CHANNELS 3 Zrotation Xrotation Yrotation
                  End Site
                  {
                    OFFSET 1.69225 -0.51767 -0.607171
                  }
                }
              }
            }
          }
        }
      }
    }
  }
  JOINT rButtock
  {
    OFFSET -8.77824 4.35084 1.2192
    CHANNELS 3 Zrotation Xrotation Yrotation
    JOINT rThigh
    {
      OFFSET 0 -1.70687 -2.19456
      CHANNELS 3 Zrotation Xrotation Yrotation
      JOINT rShin
      {
        OFFSET 0 -36.8199 0.73152
        CHANNELS 3 Zrotation Xrotation Yrotation
        JOINT rFoot
        {
          OFFSET 0.73152 -45.1104 -5.12064
          CHANNELS 3 Zrotation Xrotation Yrotation
          End Site
          {
            OFFSET -1.1221 -3.69964 12.103
          }
        }
      }
    }
  }
  JOINT lButtock
  {
    OFFSET 8.77824 4.35084 1.2192
    CHANNELS 3 Zrotation Xrotation Yrotation
    JOINT lThigh
    {
      OFFSET 0 -1.70687 -2.19456
      CHANNELS 3 Zrotation Xrotation Yrotation
      JOINT lShin
      {
        OFFSET 0 -36.8199 0.73152
        CHANNELS 3 Zrotation Xrotation Yrotation
        JOINT lFoot
        {
          OFFSET -0.73152 -45.1104 -5.12064
          CHANNELS 3 Zrotation Xrotation Yrotation
          End Site
          {
            OFFSET 1.1221 -3.69964 12.103
          }
        }
      }
    }
  }
}
MOTION
Frames:	4
Frame Time:	0.03333
6.934270542114973 55.851173400878906 18.449400644749403 -4.416880130767822 48.522151947021484 -1.2203065156936646 -2.891070604324341 13.258764266967773 -4.59687614440918 7.074671268463135 -10.72619915008545 -0.7443954348564148 -8.72424602508545 19.112897872924805 -13.155802726745605 11.033409118652344 -28.057842254638672 -23.528545379638672 -0.1628037393093109 -0.11609114706516266 -0.08375215530395508 -0.07383166253566742 -0.010016145184636116 -0.062287721782922745 0.04861756041646004 0.10790310800075531 -0.03703265264630318 55.64509963989258 3.8315207958221436 24.70624542236328 -27.748214721679688 -28.77849769592285 65.43093872070312 -0.41927245259284973 23.107507705688477 2.833134412765503 -0.08010076731443405 -0.17736577987670898 -0.015250190161168575 -0.018342530354857445 0.09593214839696884 -0.0117573831230402 0.03351937234401703 0.19370068609714508 0.08811569958925247 7.867891788482666 5.615224838256836 0.5964260101318359 0.0057032410986721516 -0.14159782230854034 0.010901165194809437 2.7806968688964844 1.1096965074539185 0.07082358747720718 0.12976327538490295 0.005230260081589222 0.060521166771650314 10.426177024841309 0.8144911527633667 0.0736912414431572 0.08034446835517883 0.07488484680652618 0.05828949064016342 2.170297145843506 -0.7507477402687073 -0.12924033403396606 0.12903498113155365 -0.16993695497512817 0.10770901292562485 -59.57229232788086 79.39289093017578 -18.00319480895996 28.165027618408203 -39.525245666503906 -83.52963256835938 23.63871955871582 -73.64942169189453 30.92791175842285 -0.03409118950366974 0.024265015497803688 0.028655841946601868 -0.039852093905210495 -0.032244786620140076 0.11724131554365158 0.052947886288166046 -0.04534478113055229 0.015825677663087845 -7.802506923675537 5.479787826538086 -0.30541348457336426 0.07458705455064774 0.025942808017134666 -0.020783036947250366 -2.8620622158050537 1.0104327201843262 -0.03790226951241493 -0.054823294281959534 -0.036036986857652664 -0.01155716273933649 -10.236632347106934 0.7458964586257935 -0.0829947367310524 0.0588575080037117 -0.057692188769578934 -0.01485727820545435 -2.354872226715088 -0.6637488603591919 0.18255572021007538 -0.08698278665542603 -0.03769129142165184 0.05209927260875702 -52.41389465332031 -46.459720611572266 -57.00027084350586 -1.3055821657180786 62.944705963134766 1.5537749528884888 -1.235668659210205 6.330653667449951 5.655704498291016 0.021858414635062218 0.04897064343094826 -0.03954794257879257 30.33248519897461 -24.211915969848633 31.12738800048828 1.383109450340271 77.89093780517578 -4.216281890869141 10.773874282836914 -24.884950637817383 23.967269897460938
6.9402324967086315 57.48525857925415 18.385375384241343 -4.892506122589111 47.9781379699707 -0.6541138887405396 -3.3488261699676514 13.379782676696777 -4.532943248748779 6.79230260848999 -10.73216724395752 -0.6582527756690979 -8.688584327697754 19.045406341552734 -12.758630752563477 10.808656692504883 -28.306182861328125 -22.990985870361328 -0.16288310289382935 -0.08553892374038696 -0.054052624851465225 -0.04964854568243027 -0.02089606411755085 0.021879974752664566 0.0406641811132431 0.135043203830719 -0.0705302283167839 56.33708572387695 3.9366707801818848 23.897239685058594 -27.77140235900879 -29.13615608215332 66.17460632324219 -0.3532341420650482 22.713077545166016 2.581732749938965 -0.05567258968949318 -0.17683392763137817 0.030776090919971466 -0.03656201437115669 0.08201364427804947 -0.04250321909785271 0.03992927074432373 0.17751659452915192 0.0968029797077179 7.863857746124268 5.6023712158203125 0.5965731739997864 0.010187610052525997 -0.13556893169879913 0.010297750122845173 2.8102831840515137 1.1066876649856567 0.0681176707148552 0.11949862539768219 0.017747925594449043 0.02719348482787609 10.412397384643555 0.7870974540710449 0.062030937522649765 0.11322697252035141 0.08751820027828217 0.03877728804945946 2.173067808151245 -0.7463032603263855 -0.1363501399755478 0.08882638067007065 -0.17509311437606812 0.10082845389842987 -58.046085357666016 78.89739227294922 -19.197677612304688 28.07042694091797 -39.24223327636719 -83.25567626953125 22.445871353149414 -73.01888275146484 29.742115020751953 -0.022044219076633453 0.01385373156517744 0.006087000947445631 -0.008849849924445152 0.011862042360007763 0.10721831768751144 0.04576404020190239 -0.05612507089972496 0.06048751622438431 -7.755887031555176 5.494196891784668 -0.3218070864677429 0.07699885964393616 0.027873799204826355 0.003310840344056487 -2.843884229660034 1.0024051666259766 -0.029005730524659157 -0.06950871646404266 -0.0335288941860199 -0.015094101428985596 -10.209708213806152 0.7486221194267273 -0.08333668857812881 0.06439858675003052 -0.08301842957735062 -0.026149040088057518 -2.351672887802124 -0.6669700145721436 0.138011172413826 -0.10669032484292984 0.0034996066242456436 0.04456547647714615 -53.077388763427734 -46.701751708984375 -57.77665710449219 -1.7397643327713013 63.89716339111328 1.92377507686615 -1.6840147972106934 5.364779472351074 5.184204578399658 -0.001182029489427805 0.01788211241364479 -0.005237651523202658 30.83685302734375 -24.364227294921875 31.754920959472656 0.9363916516304016 77.7843246459961 -3.6623482704162598 10.632508277893066 -24.207731246948242 23.831018447875977
6.952110957354307 57.003092765808105 18.339046370238066 -4.8397216796875 48.494991302490234 -0.49958693981170654 -3.029449462890625 13.41644287109375 -4.709094047546387 7.180215835571289 -10.670287132263184 -0.6299673914909363 -8.816164016723633 19.23084831237793 -13.35041332244873 10.841241836547852 -28.74895668029785 -23.584550857543945 -0.1569729894399643 -0.07680416107177734 -0.05658029764890671 -0.013955258764326572 0.02379162423312664 0.045397453010082245 0.030914289876818657 0.1337604522705078 -0.07754237949848175 56.58517074584961 2.0236146450042725 25.48655128479004 -27.714649200439453 -28.484996795654297 64.92092895507812 -0.3423733115196228 23.215892791748047 2.880098342895508 -0.10507465153932571 -0.1446712613105774 0.0745982974767685 -0.04190463200211525 0.09442166984081268 0.005387015175074339 0.0006123085622675717 0.1612241268157959 0.06933023035526276 7.88033390045166 5.5581536293029785 0.5964783430099487 0.03878649324178696 -0.13345342874526978 -0.002779146423563361 2.856494903564453 1.119776964187622 0.056967273354530334 0.1149103194475174 0.05432269349694252 0.007375124841928482 10.345549583435059 0.7556049227714539 0.09129054099321365 0.12425961345434189 0.1417921632528305 -0.012719380669295788 2.1368184089660645 -0.7801443934440613 -0.10871034860610962 0.11885729432106018 -0.10569170862436295 0.021798890084028244 -58.14789962768555 80.51002502441406 -19.03704261779785 28.070043563842773 -39.51607131958008 -83.5313949584961 26.182077407836914 -75.12061309814453 33.73954391479492 -0.009048202075064182 0.009940368123352528 -0.02759353443980217 0.004691043868660927 0.012751135043799877 0.09184174984693527 0.04617947340011597 -0.09461319446563721 0.025709383189678192 -7.757913589477539 5.4985857009887695 -0.3509277105331421 0.08700121939182281 0.0030933006200939417 0.05170616880059242 -2.839146852493286 0.939498245716095 -0.034173235297203064 -0.04735679179430008 -0.012190575711429119 -0.040642812848091125 -10.245454788208008 0.728253185749054 -0.0573657751083374 0.023669688031077385 -0.09275145828723907 -0.0025334274396300316 -2.367833375930786 -0.6030541658401489 0.16723725199699402 -0.0781603455543518 0.04772351309657097 0.040952906012535095 -52.181312561035156 -46.466068267822266 -57.08582305908203 -1.6067564487457275 62.70451354980469 1.7390676736831665 -1.5989892482757568 5.447893142700195 5.349327087402344 -0.015995727851986885 0.01900460384786129 0.003414615523070097 30.403152465820312 -24.6704044342041 32.384918212890625 1.3134381771087646 78.50205993652344 -4.170199394226074 11.177078247070312 -24.750036239624023 24.323904037475586
7.0030756294727325 55.83747625350952 18.312857765704393 -4.373855113983154 48.197166442871094 -0.27088311314582825 -2.5963456630706787 13.176912307739258 -4.630805969238281 7.484390735626221 -10.6458740234375 -0.6315212249755859 -8.885016441345215 19.388519287109375 -13.573180198669434 11.361339569091797 -28.901872634887695 -23.808197021484375 -0.12729398906230927 -0.0911949947476387 -0.12437042593955994 -0.027491608634591103 0.019921742379665375 0.03162477910518646 0.06746465712785721 0.10921890288591385 -0.09456261247396469 56.61636734008789 0.820905864238739 27.060762405395508 -27.553878784179688 -27.947845458984375 63.91819381713867 -0.37072786688804626 23.65038299560547 3.1676671504974365 -0.1462153196334839 -0.1343650072813034 0.0893077477812767 0.008621190674602985 0.06952597200870514 0.08457747846841812 -0.010269622318446636 0.11388854682445526 0.060676656663417816 7.882595539093018 5.520529747009277 0.5792470574378967 0.0672624409198761 -0.123688243329525 -0.029428938403725624 2.859947919845581 1.0979653596878052 0.06431972980499268 0.13414707779884338 0.10606852173805237 -0.0035771981347352266 10.301443099975586 0.7607409954071045 0.09374126046895981 0.12335271388292313 0.1755419671535492 0.00854856800287962 2.124645233154297 -0.8122495412826538 -0.08549419045448303 0.14275875687599182 -0.07671402394771576 -0.05612654983997345 -53.23622131347656 81.75592041015625 -24.27362632751465 28.176259994506836 -39.515933990478516 -83.42280578613281 28.529075622558594 -76.22743225097656 36.14277267456055 0.017631107941269875 -0.009165272116661072 -0.02871961146593094 -0.004109025001525879 -0.005398084409534931 0.06831016391515732 0.05247151479125023 -0.07008224725723267 -0.022073479369282722 -7.7322492599487305 5.47241735458374 -0.32209423184394836 0.07752763479948044 -0.005746994633227587 0.05838657543063164 -2.8683621883392334 0.9288519024848938 -0.038668591529130936 0.023983262479305267 0.03159074857831001 -0.07324075698852539 -10.322789192199707 0.7222646474838257 -0.05985696241259575 0.01066877506673336 -0.06831368803977966 -0.025564709678292274 -2.3574984073638916 -0.6000986099243164 0.2356722354888916 -0.05194758251309395 0.0815901905298233 0.05592528358101845 -50.93990707397461 -46.243221282958984 -55.92741775512695 -1.4264464378356934 61.43793487548828 1.5856910943984985 -1.05998957157135 5.633639335632324 5.219846725463867 0.007358783856034279 0.03284861892461777 -0.03181645646691322 30.172941207885742 -24.9238338470459 32.34162902832031 2.1863656044006348 78.49394226074219 -5.1885666847229 11.518582344055176 -25.150571823120117 24.921281814575195
